***** A.Christmas.Carol.2009.DVDRiP.XviD.MULTISUB-Zen_Bud *****

Format                           : AVI
Format profile                   : OpenDML
File size                        : 700 MiB
Duration                         : 1h 31mn
Overall bit rate                 : 1 065 Kbps
Writing application              : AVI-Mux GUI 1.17.8.3

Video

Format                           : MPEG-4 Visual
Codec ID/Hint                    : XviD
Duration                         : 1h 31mn
Bit rate                         : 933 Kbps
Width                            : 720 pixels
Height                           : 428 pixels
Display aspect ratio             : 2.35:1
Stream size                      : 613 MiB (88%)
Writing library                  : XviD 1.1.2 (UTC 2006-11-01)

Audio

Format                           : MPEG Audio
Codec ID/Hint                    : MP3
Duration                         : 1h 31mn
Bit rate                         : 128 Kbps
Channel(s)                       : 2 channels
Sampling rate                    : 48.0 KHz
Stream size                      : 84.1 MiB (12%)
Writing library                  : LAME3.98
Language                         : English

Text #1
Language                         : English

Text #2
Language                         : Spanish

Text #3
Language                         : Portuguese

Text #4
Language                         : Dutch

Text #5
Language                         : Icelandic

Text #6
Language                         : English

Text #7
Language                         : Swedish

Text #8
Language                         : Norwegian

Text #9
Language                         : Danish

Text #10
Language                         : Finnish


An animated retelling of Charles Dickens' classic novel about a Victorian-era miser taken on a journey of self-redemption, courtesy of several mysterious Christmas apparitions.